<svg width="69" height="69" viewBox="0 0 69 69" xmlns="http://www.w3.org/2000/svg" xmlns:xlink="http://www.w3.org/1999/xlink">
    <defs>
        <filter x="-2.2%" y="-3.5%" width="104.4%" height="109.5%" filterUnits="objectBoundingBox" id="wxdo54xddb">
            <feOffset dy="7" in="SourceAlpha" result="shadowOffsetOuter1"/>
            <feGaussianBlur stdDeviation="7.5" in="shadowOffsetOuter1" result="shadowBlurOuter1"/>
            <feColorMatrix values="0 0 0 0 0 0 0 0 0 0 0 0 0 0 0 0 0 0 0.1 0" in="shadowBlurOuter1"/>
        </filter>
        <rect id="x9yu3dsi1a" x="0" y="0" width="1176" height="545" rx="8"/>
    </defs>
    <g fill="none" fill-rule="evenodd">
        <path fill="#FFF" d="M-1035-752h3756v4755h-3756z"/>
        <g transform="translate(-552 -292)">
            <use fill="#000" filter="url(#wxdo54xddb)" xlink:href="#x9yu3dsi1a"/>
            <use fill="#FFF" xlink:href="#x9yu3dsi1a"/>
        </g>
        <g fill="#4669F5" fill-rule="nonzero">
            <path d="M29.248 22.955c2.198.036 4.482.868 5.555 2.686l2.846 4.855c1.45 0 2.918.027 4.348-.002 3.494-.083 6.814-2.4 8.081-5.69a9 9 0 0 0 .33-5.358l-.018-.07-.037-.396c.076-.339.06-.452.29-.73.412-.501 1.264-.6 1.783-.168.306.254.34.347.45.792 1.13 4.65-.94 9.905-5.098 12.469a11.46 11.46 0 0 1-5.938 1.695h-4.915l-.326-.043c-.101-.041-.21-.07-.304-.125-.256-.148-.286-.23-.463-.46-1.076-1.834-2.123-3.685-3.227-5.502-.627-1.018-2.048-1.387-3.35-1.41-1.09-.02-2.223.21-3.074.861a2.058 2.058 0 0 0-.524.565l-3.218 5.488-.201.26c-.088.067-.166.144-.261.199-.258.147-.343.13-.63.168-2.242 0-4.541.198-6.667-.141-4.963-.792-9.192-5.194-9.582-10.447-.286-3.85 1.521-7.794 4.643-10.082a11.483 11.483 0 0 1 6.692-2.202c8.472-.017 16.945-.02 25.417 0a11.5 11.5 0 0 1 5.435 1.408l.037.02c.274.213.382.247.536.573.38.81-.379 1.98-1.384 1.788-.41-.079-.743-.34-1.125-.507a8.897 8.897 0 0 0-3.508-.741 4129.86 4129.86 0 0 0-25.428 0c-3.258.025-6.43 1.989-7.891 4.948-1.167 2.362-1.21 5.252-.117 7.65 1.405 3.077 4.666 5.185 8.065 5.192h4.154c.952-1.625 1.901-3.253 2.858-4.875 1.178-1.965 3.706-2.687 5.766-2.667z"/>
            <path d="M41.858 5.083c6.582.03 12.968 4.316 15.363 10.696 1.841 4.9 1.19 10.65-1.733 15.019-2.994 4.475-8.173 7.312-13.682 7.323h-7.765c-.126-.02-.255-.02-.375-.058a1.262 1.262 0 0 1-.62-.427c-.078-.099-.125-.22-.187-.33-.74-1.929-1.471-3.86-2.218-5.784-.465-1.163-2.467-1.391-3.014.017l-2.212 5.767c-.062.11-.109.232-.188.33a1.27 1.27 0 0 1-.619.427c-.12.038-.25.038-.375.058-2.606 0-5.211.005-7.817 0A16.582 16.582 0 0 1 6.3 34.597C1.545 30.848-.912 24.35.34 18.265c1.047-5.095 4.626-9.6 9.411-11.744a16.552 16.552 0 0 1 6.667-1.437c8.48-.011 16.96-.017 25.441 0v-.001zM29.217 27.957a4.23 4.23 0 0 1 3.793 2.664l1.901 4.958c2.313 0 4.626.004 6.94 0 4.94-.022 9.824-2.882 12.23-7.354 2.795-5.202 1.887-12.16-2.393-16.478a14.05 14.05 0 0 0-9.837-4.123c-8.49-.017-16.98-.04-25.468 0-5.48.043-10.779 3.585-12.853 8.787-1.67 4.188-1.178 9.178 1.36 12.97 2.538 3.792 6.957 6.19 11.58 6.198h6.893l1.902-4.958.027-.072c.625-1.52 2.156-2.586 3.845-2.594l.08.001z"/>
            <path d="M32.936 50.832c-.01 1.397-.058 2.789.309 4.104.929 3.34 4.113 5.922 7.647 5.957 3.766.01 7.532.019 11.299 0 3.048-.026 5.972-1.806 7.463-4.46a9.098 9.098 0 0 0 1.154-4.406c.027-16.08-.053-32.16 0-48.242.02-1.942 1.673-3.738 3.725-3.784L64.637 0c1.952.02 3.754 1.72 3.773 3.785.056 16.898.077 33.794 0 50.692-.036 4.761-2.546 9.476-6.662 12.047a13.808 13.808 0 0 1-7.187 2.092c-5.11.024-10.223.007-15.333 0-5.54-.03-10.87-3.68-12.927-9.018a14.587 14.587 0 0 1-.964-5.209V50.83l-1.3-.004c-2.174-.02-4.243-1.58-4.841-3.691-.477-1.685-.011-3.601 1.186-4.876a5.126 5.126 0 0 1 3.656-1.598c3.4-.012 6.8-.012 10.2 0 2.013.02 3.929 1.334 4.671 3.19.816 2.039.125 4.584-1.622 5.929a5.095 5.095 0 0 1-3.048 1.047c-.434 0-.868.002-1.3.004h-.003zm-5.068.003c-.014 1.768-.123 3.553.123 5.268.77 5.378 5.565 9.943 11.243 9.973 5.103.008 10.207.025 15.31 0 3.531-.028 6.978-1.83 9.064-4.695a11.98 11.98 0 0 0 2.266-6.918c.077-16.892.263-33.787 0-50.679-.022-.975-1.42-1.654-2.186-.848a1.28 1.28 0 0 0-.348.848c-.251 16.095.072 32.193 0 48.287-.046 5.872-5.003 11.334-11.17 11.364-3.744.002-7.488 0-11.232 0-3.633-.01-7.205-2.085-9.052-5.252a11.062 11.062 0 0 1-1.484-5.5v-1.848h-2.535.001zm-3.796-7.631c-1.286.004-2.468 1.113-2.533 2.41-.068 1.353 1.068 2.66 2.513 2.673 3.395.011 6.79.03 10.184 0 1.353-.022 2.56-1.282 2.498-2.657-.057-1.276-1.178-2.412-2.514-2.426-3.384-.011-6.766 0-10.149 0z"/>
        </g>
    </g>
</svg>
