<svg width="68" height="68" viewBox="0 0 68 68" xmlns="http://www.w3.org/2000/svg" xmlns:xlink="http://www.w3.org/1999/xlink">
    <defs>
        <filter x="-2.2%" y="-3.5%" width="104.4%" height="109.5%" filterUnits="objectBoundingBox" id="tj76f9f7yb">
            <feOffset dy="7" in="SourceAlpha" result="shadowOffsetOuter1"/>
            <feGaussianBlur stdDeviation="7.5" in="shadowOffsetOuter1" result="shadowBlurOuter1"/>
            <feColorMatrix values="0 0 0 0 0 0 0 0 0 0 0 0 0 0 0 0 0 0 0.1 0" in="shadowBlurOuter1"/>
        </filter>
        <rect id="jpy1vtpfma" x="0" y="0" width="1176" height="545" rx="8"/>
    </defs>
    <g fill="none" fill-rule="evenodd">
        <path fill="#FFF" d="M-671-755h3756v4755H-671z"/>
        <g transform="translate(-188 -295)">
            <use fill="#000" filter="url(#tj76f9f7yb)" xlink:href="#jpy1vtpfma"/>
            <use fill="#FFF" xlink:href="#jpy1vtpfma"/>
        </g>
        <g fill="#4669F5" fill-rule="nonzero">
            <path d="M5.612 57.676c0 3.604 1.926 6.932 5.05 8.734a10.118 10.118 0 0 0 10.103 0 10.08 10.08 0 0 0 5.051-8.734V52.21c.508-2.036 5.613-22.632 5.613-28.147V7.256c0-3.708-3.526-6.723-7.858-6.723a8.988 8.988 0 0 0-3.053.525 5.257 5.257 0 0 0-1.057.548 7.643 7.643 0 0 1-3.747 1.168 7.641 7.641 0 0 1-3.747-1.168 5.3 5.3 0 0 0-1.055-.547A9 9 0 0 0 7.857.533C3.525.533 0 3.55 0 7.256v17.928c0 5.502 5.081 25.012 5.613 27.035l-.001 5.457zm17.96 0a7.841 7.841 0 0 1-3.929 6.793 7.87 7.87 0 0 1-7.857 0 7.841 7.841 0 0 1-3.929-6.793v-4.481h2.245v4.481a5.6 5.6 0 0 0 2.806 4.852c1.737 1 3.876 1 5.613 0a5.6 5.6 0 0 0 2.806-4.852v-4.481h2.245v4.481zm-11.225-4.481h6.735v4.481c0 1.201-.642 2.311-1.684 2.911-1.041.6-2.325.6-3.367 0a3.36 3.36 0 0 1-1.684-2.91v-4.482zM29.185 7.257v16.807c0 4.794-4.352 22.76-5.369 26.89H20.31l4.284-48.097c2.607.386 4.592 2.208 4.592 4.4zM10.76 3.496a9.855 9.855 0 0 0 4.955 1.52 9.85 9.85 0 0 0 4.954-1.52c.191-.13.396-.241.61-.328a6.478 6.478 0 0 1 1.058-.28l-4.282 48.067h-4.68L9.091 2.887c.36.064.713.157 1.057.278.215.089.42.2.61.33h.001zm-8.515 3.76c0-2.192 1.985-4.014 4.592-4.4l4.284 48.098H7.603c-1.03-3.98-5.358-20.993-5.358-25.77V7.257zM41.231 57.676a10.08 10.08 0 0 0 5.051 8.734 10.118 10.118 0 0 0 10.102 0 10.082 10.082 0 0 0 5.051-8.734V52.21c.509-2.036 5.613-22.632 5.613-28.147V7.256c0-3.708-3.527-6.723-7.858-6.723a8.986 8.986 0 0 0-3.053.525 5.276 5.276 0 0 0-1.057.548 7.64 7.64 0 0 1-3.747 1.168 7.643 7.643 0 0 1-3.747-1.168 5.31 5.31 0 0 0-1.054-.547 9.001 9.001 0 0 0-3.056-.526c-4.332 0-7.857 3.016-7.857 6.724v17.926c0 5.502 5.081 25.012 5.613 27.035v5.458zm17.96 0a7.841 7.841 0 0 1-3.929 6.793 7.869 7.869 0 0 1-7.857 0 7.842 7.842 0 0 1-3.928-6.793v-4.481h2.244v4.481a5.6 5.6 0 0 0 2.807 4.852c1.736 1 3.875 1 5.612 0a5.6 5.6 0 0 0 2.806-4.852v-4.481h2.245v4.481zm-11.225-4.481h6.735v4.481c0 1.201-.641 2.311-1.684 2.911-1.042.6-2.325.6-3.367 0a3.36 3.36 0 0 1-1.684-2.91v-4.482zM64.803 7.257v16.807c0 4.794-4.352 22.76-5.368 26.89h-3.507l4.283-48.097c2.608.386 4.592 2.208 4.592 4.4zM46.38 3.496a9.851 9.851 0 0 0 4.955 1.52 9.854 9.854 0 0 0 4.954-1.52c.191-.13.396-.241.61-.328a6.471 6.471 0 0 1 1.058-.28l-4.282 48.067h-4.68L44.711 2.887c.36.064.713.157 1.058.278.214.089.42.2.61.33zm-8.515 3.76c0-2.192 1.985-4.014 4.592-4.4l4.283 48.098h-3.517c-1.03-3.98-5.358-20.993-5.358-25.77V7.257z"/>
        </g>
    </g>
</svg>
