<svg width="72" height="77" viewBox="0 0 72 77" xmlns="http://www.w3.org/2000/svg" xmlns:xlink="http://www.w3.org/1999/xlink">
    <defs>
        <filter x="-2.2%" y="-3.5%" width="104.4%" height="109.5%" filterUnits="objectBoundingBox" id="6ksmyfid3b">
            <feOffset dy="7" in="SourceAlpha" result="shadowOffsetOuter1"/>
            <feGaussianBlur stdDeviation="7.5" in="shadowOffsetOuter1" result="shadowBlurOuter1"/>
            <feColorMatrix values="0 0 0 0 0 0 0 0 0 0 0 0 0 0 0 0 0 0 0.1 0" in="shadowBlurOuter1"/>
        </filter>
        <rect id="lyym3xv14a" x="0" y="0" width="1176" height="545" rx="8"/>
    </defs>
    <g fill="none" fill-rule="evenodd">
        <path fill="#FFF" d="M-1409-740h3756v4755h-3756z"/>
        <g transform="translate(-926 -280)">
            <use fill="#000" filter="url(#6ksmyfid3b)" xlink:href="#lyym3xv14a"/>
            <use fill="#FFF" xlink:href="#lyym3xv14a"/>
        </g>
        <path d="M68.15 53.432h-1.262v-3.817c0-.702-.565-1.272-1.262-1.272-.697 0-1.262.57-1.262 1.272v3.817H46.696v-7.633H68.15a3.781 3.781 0 0 0 3.28-1.908 3.844 3.844 0 0 0 0-3.817 3.781 3.781 0 0 0-3.28-1.908h-1.262a16.47 16.47 0 0 0-4.808-11.692l-2.764-2.824v-5.84h2.524v1.273c0 .337.133.66.37.9.236.238.558.372.892.372h5.048c.335 0 .656-.134.893-.373.237-.238.37-.562.37-.9V8.906c0-.337-.133-.66-.37-.9a1.257 1.257 0 0 0-.893-.372h-5.048c-.697 0-1.262.57-1.262 1.272v1.273H47.958c-.697 0-1.262.57-1.262 1.272 0 .702.565 1.272 1.262 1.272H61.84v2.544h-3.786c-.697 0-1.262.57-1.262 1.272v3.817h-2.524v-3.817c0-.337-.133-.66-.37-.9a1.257 1.257 0 0 0-.892-.372H30.289c-.697 0-1.262.57-1.262 1.272v3.817h-2.524v-3.817c0-.337-.133-.66-.37-.9a1.257 1.257 0 0 0-.892-.372h-5.048v-2.544h5.048c.335 0 .656-.134.892-.373.237-.238.37-.562.37-.9V7.634h2.524v3.817c0 .337.133.66.37.9.236.238.558.372.892.372h12.62c.698 0 1.263-.57 1.263-1.272 0-.703-.565-1.272-1.262-1.272H31.55V7.633h1.262c.335 0 .656-.134.893-.372.236-.239.37-.563.37-.9V1.272c0-.337-.134-.66-.37-.9A1.257 1.257 0 0 0 32.813 0H22.717c-.697 0-1.262.57-1.262 1.272v5.089c0 .337.133.661.37.9.236.238.557.372.892.372h1.262v2.545H18.93c-.697 0-1.262.57-1.262 1.272v1.272h-1.262a11.311 11.311 0 0 0-8.032 3.354 11.495 11.495 0 0 0-3.327 8.096V43.38a6.324 6.324 0 0 0-4.576 3.818 6.406 6.406 0 0 0 .597 5.957 6.297 6.297 0 0 0 5.241 2.819 6.297 6.297 0 0 0 5.241-2.819 6.406 6.406 0 0 0 .597-5.957 6.324 6.324 0 0 0-4.576-3.818v-19.21a8.94 8.94 0 0 1 2.588-6.296 8.796 8.796 0 0 1 6.247-2.609h1.262v1.272c0 .338.133.662.37.9.236.239.557.373.892.373h5.048v5.84l-2.764 2.786v-.001a16.466 16.466 0 0 0-4.808 11.73h-1.262a3.781 3.781 0 0 0-3.28 1.908 3.844 3.844 0 0 0 0 3.817 3.781 3.781 0 0 0 3.28 1.908h1.262v7.633h-1.262a3.781 3.781 0 0 0-3.28 1.908 3.844 3.844 0 0 0 0 3.817 3.781 3.781 0 0 0 3.28 1.908h1.262v8.905a6.39 6.39 0 0 0 1.848 4.499 6.287 6.287 0 0 0 4.462 1.862h10.096c1.674 0 3.279-.67 4.462-1.862a6.39 6.39 0 0 0 1.848-4.499v-8.905h5.049v8.905a6.39 6.39 0 0 0 1.847 4.499 6.287 6.287 0 0 0 4.463 1.862h10.096c1.673 0 3.278-.67 4.462-1.862a6.39 6.39 0 0 0 1.848-4.499v-8.905h1.262a3.781 3.781 0 0 0 3.28-1.908 3.844 3.844 0 0 0 0-3.817 3.781 3.781 0 0 0-3.28-1.908zm-3.786-43.254h2.524v7.633h-2.524v-7.633zM23.98 2.544h7.572V5.09H23.98V2.544zM10.096 49.615a3.833 3.833 0 0 1-1.108 2.7 3.772 3.772 0 0 1-2.678 1.117 3.771 3.771 0 0 1-2.677-1.118 3.834 3.834 0 0 1-1.109-2.699c0-1.012.4-1.983 1.11-2.698a3.772 3.772 0 0 1 2.676-1.118c1.004 0 1.968.402 2.678 1.118a3.834 3.834 0 0 1 1.108 2.698zM42.91 57.25c0 .514-.308.978-.78 1.175a1.254 1.254 0 0 1-1.375-.276 1.279 1.279 0 0 1-.273-1.386 1.257 1.257 0 0 1 2.058-.413c.237.238.37.562.37.9zm-2.524-15.267c0-.514.307-.978.779-1.175a1.254 1.254 0 0 1 1.375.276c.361.364.469.91.273 1.386a1.261 1.261 0 0 1-1.165.785c-.697 0-1.262-.57-1.262-1.272zm16.772-16.907 3.143 3.154v.001a13.948 13.948 0 0 1 4.063 9.936H61.84c-.697 0-1.262.57-1.262 1.272 0 .702.565 1.272 1.262 1.272h6.31c.698 0 1.263.57 1.263 1.272 0 .703-.565 1.272-1.262 1.272H45.207a3.68 3.68 0 0 0 0-2.544h11.586c.697 0 1.262-.57 1.262-1.272 0-.703-.565-1.272-1.262-1.272H46.696a13.949 13.949 0 0 1 4.064-9.898l3.143-3.155c.246-.25.378-.59.366-.941v-1.273h2.524v1.273c-.002.337.13.663.366.903zM31.551 17.81h20.193v5.84l-2.764 2.785a16.466 16.466 0 0 0-4.808 11.73h-5.049a16.47 16.47 0 0 0-4.808-11.692l-2.764-2.824v-5.84zm-12.62 20.355a13.949 13.949 0 0 1 4.064-9.898l3.142-3.155c.246-.25.378-.59.366-.941v-1.273h2.524v1.273c-.002.337.13.663.366.903l3.143 3.154v.001a13.948 13.948 0 0 1 4.063 9.936H18.931zm-5.048 3.816c0-.702.565-1.272 1.262-1.272h22.943a3.68 3.68 0 0 0 0 2.544H15.145c-.697 0-1.262-.57-1.262-1.272zM18.93 45.8h25.24v7.633h-5.048v-3.817c0-.702-.565-1.272-1.262-1.272-.697 0-1.262.57-1.262 1.272v3.817H18.931v-7.633zm-5.048 11.45c0-.703.565-1.273 1.262-1.273h22.943a3.68 3.68 0 0 0 0 2.545H15.145c-.697 0-1.262-.57-1.262-1.273zM36.6 69.97a3.833 3.833 0 0 1-1.11 2.7 3.772 3.772 0 0 1-2.677 1.117H22.717a3.771 3.771 0 0 1-2.677-1.118 3.834 3.834 0 0 1-1.11-2.699v-3.816H36.6v3.816zm0-6.36H18.93v-2.545H36.6v2.544zm27.764 6.36a3.833 3.833 0 0 1-1.108 2.7 3.772 3.772 0 0 1-2.678 1.117H50.482a3.771 3.771 0 0 1-2.677-1.118 3.834 3.834 0 0 1-1.11-2.699v-3.816h17.67v3.816zm0-6.36H46.696v-2.545h17.668v2.544zm3.786-5.09H45.207a3.68 3.68 0 0 0 0-2.544H68.15c.697 0 1.262.57 1.262 1.272 0 .703-.565 1.273-1.262 1.273z" fill="#4669F5" fill-rule="nonzero"/>
    </g>
</svg>
